<svg width="142" height="158" xmlns="http://www.w3.org/2000/svg">
 <style type="text/css">.st0{fill:#3F7DB1;}
	.st1{fill:#114C90;}
	.st2{fill:#F05323;}
	.st3{fill:#303036;}</style>

 <g>
  <title>Layer 1</title>
  <path id="svg_1" d="m73.1,84.5l6.5,-4.2c2.5,-1.6 5.8,-1.4 8.1,0.6l34.3,-22.3l-27.9,-16.1l-58.1,37.7c0.9,2.9 -0.2,6 -2.8,7.6l-6.5,4.2c-2.5,1.6 -5.8,1.4 -8.1,-0.6l-18.7,12.2l0,34.2l70.3,-45.7c-0.8,-2.9 0.3,-6 2.9,-7.6l0,0z" class="st0"/>
  <path id="svg_2" d="m19.4,80.7l6.5,-4.2c2.5,-1.6 5.8,-1.4 8.1,0.6l56.5,-36.6l-27.8,-16.2l-11.1,7.2c0.9,2.9 -0.2,6 -2.8,7.6l-6.5,4.2c-2.5,1.6 -5.8,1.4 -8.1,-0.6l-34.3,22.3l0,34.3l16.7,-10.8c-0.9,-3 0.3,-6.2 2.8,-7.8l0,0z" class="st1"/>
  <path id="svg_3" d="m86.9,91.6l-6.5,4.2c-2.5,1.6 -5.8,1.4 -8.1,-0.6l-72.3,47c0.5,9.8 6.7,16.4 15.5,16.4c3.5,-0.1 7,-1.1 9.9,-2.9l106.8,-61.6c6.1,-3.5 9.5,-8.9 9.5,-14.7c0,-5.8 -3.5,-11.3 -9.5,-14.7l-6.8,-3.9l-35.8,23.3c1,2.7 -0.2,5.9 -2.7,7.5z" class="st2"/>
  <path id="svg_4" d="m34.9,32.1l6.5,-4.2c2.5,-1.6 5.8,-1.4 8.1,0.6l9.5,-6.2l-33.6,-19.4c-3,-1.8 -6.4,-2.8 -9.9,-2.9c-9.1,0 -15.5,7.2 -15.5,17.7l0,43.1l32.3,-21c-1,-3 0.2,-6.1 2.6,-7.7zm130.3,-2.3l41.5,0l0,11.3l-29.1,0l0,16.9l26.6,0l0,11.3l-26.6,0l0,17.6l29.2,0l0,11.3l-41.6,0l0,-68.4zm47.1,19.7l12.2,0l10,34.3l9.9,-34.3l12.3,0l-16,48.7l-12.7,0l-15.7,-48.7l0,0zm65.8,38.3l10.3,0c1.5,0.1 2.7,-1.1 2.8,-2.5l0,-2.5l11.4,0l0,4.8c0.1,5.8 -4.6,10.5 -10.4,10.6l-18,0c-5.9,0 -10.7,-4.8 -10.7,-10.7l0,-27.2c-0.1,-5.9 4.7,-10.8 10.6,-10.8l17.8,0c5.9,0 10.7,4.8 10.7,10.7l0,16.9l-27.3,0l0,8.1c0,1.4 1.3,2.7 2.8,2.6l0,0l0,0zm-2.8,-18.5l16,0l0,-6.8c0,-1.5 -1.2,-2.7 -2.7,-2.7l-10.4,0c-1.5,-0.1 -2.7,1.1 -2.8,2.5l0,7l-0.1,0zm51.9,28.9l-11.8,0l0,-48.7l11.3,0l0,3.7c4.5,-1.8 12.8,-4.8 17.9,-4.8c7,0 10.8,4.8 10.8,10.8l0,39l-11.8,0l0,-35.4c0.1,-1.4 -1.1,-2.6 -2.5,-2.7l-0.3,0c-2.5,0 -8.5,2.3 -10.8,3.1c-1.7,0.6 -2.9,2.3 -2.8,4.1l0,30.9l0,0zm66.7,0l-12.1,0c-5.9,0 -10.7,-4.8 -10.7,-10.7l0,-27.7l-7.4,0l0,-10.3l7.4,0l0,-12.4l11.8,0l0,12.4l10.9,0l0,10.3l-10.9,0l0,25.5c0,1.5 1.2,2.7 2.6,2.7l8.3,0l0,10.2l0.1,0zm14.4,-68.4l49.5,0l0,11.3l-18.6,0l0,57.1l-12.3,0l0,-57.1l-18.6,0l0,-11.3l0,0zm63.1,58l10.3,0c1.5,0.1 2.7,-1.1 2.8,-2.5l0,-2.4l11.3,0l0,4.8c0.1,5.8 -4.6,10.5 -10.4,10.6l-18,0c-5.9,0 -10.7,-4.8 -10.7,-10.7l0,-27.3c-0.1,-5.9 4.7,-10.8 10.6,-10.8l17.8,0c5.9,0 10.7,4.8 10.7,10.7l0,16.9l-27.3,0l0,8.1c0,1.5 1.2,2.7 2.7,2.7c0.1,0 0.2,0 0.2,-0.1zm-2.8,-18.5l15.9,0l0,-6.8c0,-1.5 -1.2,-2.7 -2.7,-2.7l-10.4,0c-1.5,-0.1 -2.7,1.1 -2.8,2.5l0,7l0,0zm66.6,11l11.4,0l0,7.1c0.1,5.8 -4.6,10.7 -10.5,10.8l-17.7,0c-5.9,0 -10.7,-4.8 -10.7,-10.7l0,-27.2c-0.1,-5.9 4.7,-10.8 10.6,-10.8l17.7,0c5.8,0 10.7,4.7 10.7,10.6l0,6.7l-11.5,0l0,-3.8c0,-1.5 -1.2,-2.7 -2.7,-2.7l-10.2,0c-1.5,-0.1 -2.7,1.1 -2.8,2.5l0,21.9c0,1.5 1.2,2.7 2.7,2.7l10.3,0c1.5,0 2.7,-1.2 2.7,-2.6l0,-4.5l0,0zm35,17.9l-11.8,0l0,-68.4l11.8,0l0,23.5c4.1,-1.8 12.3,-4.8 17.3,-4.8c7,0 10.8,4.8 10.8,10.8l0,38.9l-11.8,0l0,-35.4c0.1,-1.4 -1.1,-2.6 -2.5,-2.7l-0.3,0c-2.5,0 -8.5,2.1 -10.8,3.1c-1.7,0.6 -2.9,2.3 -2.8,4.1l0.1,30.9l0,0zm-393.2,13.2l0,14.6c0,1.6 -1.3,2.9 -2.9,2.9l-5.3,0c-1.6,0 -2.9,-1.3 -2.9,-2.9l0,-2.9l3.7,0l0,2.1c0,0.2 0.1,0.2 0.2,0.2l3,0c0.2,0 0.2,-0.1 0.2,-0.2l0,-13.8l4,0zm31.1,0l0,14.6c0,1.6 -1.3,2.9 -2.9,2.9l-6.2,0c-1.6,0 -2.9,-1.3 -2.9,-2.9l0,-14.6l3.9,0l0,13.8c0,0.2 0.1,0.2 0.2,0.2l3.9,0c0.2,0 0.2,-0.1 0.2,-0.2l0,-13.8l3.8,0zm30.9,14.6c0,1.6 -1.3,2.9 -2.9,2.9l-5.9,0c-1.6,0 -2.9,-1.3 -2.9,-2.9l0,-2.3l3.7,0l0,1.5c0,0.2 0.1,0.2 0.2,0.2l3.7,0c0.2,0 0.2,-0.1 0.2,-0.2l0,-2.5c0,-0.2 -0.2,-0.2 -0.3,-0.3l-5.1,-1.5c-1.6,-0.4 -2.5,-1.2 -2.5,-2.7l0,-3.9c0,-1.6 1.3,-2.9 2.9,-2.9l5.8,0c1.6,0 2.9,1.3 2.9,2.9l0,2.3l-3.7,0l0,-1.5c0,-0.2 -0.1,-0.2 -0.2,-0.2l-3.5,0c-0.2,0 -0.2,0.1 -0.2,0.2l0,2.3c0,0.2 0.2,0.2 0.3,0.3l5.3,1.5c1.5,0.4 2.4,1.2 2.4,2.7l-0.2,4.1l0,0zm17.8,-14.6l12.8,0l0,3.5l-4.5,0l0,14l-3.8,0l0,-14l-4.5,0l0,-3.5zm73.5,0c1.6,0 2.9,1.3 2.9,2.9l0,5.3c0,1.6 -1.3,2.9 -2.9,2.9l-5.6,0l0,6.4l-3.8,0l0,-17.5l9.4,0l0,0zm-5.6,3.4l0,4.2l4.4,0c0.2,0 0.2,-0.1 0.2,-0.2l0,-3.6c0,-0.2 -0.1,-0.2 -0.2,-0.2l-4.4,-0.2l0,0zm33.2,7.6l-2.6,0l0,6.4l-3.8,0l0,-17.5l9.7,0c1.6,0 2.9,1.3 2.9,2.9l0,5.3c0,1.3 -0.8,2.4 -2.1,2.8l3.1,6.6l-4.2,0l-3,-6.5l0,0zm-2.6,-7.6l0,4.1l4.8,0c0.2,0 0.2,-0.1 0.2,-0.2l0,-3.6c0,-0.2 -0.1,-0.2 -0.2,-0.2l-4.8,0l0,-0.1zm28.2,-3.4l10.8,0l0,3.5l-7,0l0,3.4l6.5,0l0,3.5l-6.5,0l0,3.8l7.1,0l0,3.5l-10.9,0l0,-17.7l0,0zm41.4,14.6c0,1.6 -1.3,2.9 -2.9,2.9l-5.9,0c-1.6,0 -2.9,-1.3 -2.9,-2.9l0,-2.3l3.8,0l0,1.5c0,0.2 0.1,0.2 0.2,0.2l3.7,0c0.2,0 0.2,-0.1 0.2,-0.2l0,-2.5c0,-0.2 -0.2,-0.2 -0.3,-0.3l-5.1,-1.5c-1.6,-0.4 -2.5,-1.2 -2.5,-2.7l0,-3.9c0,-1.6 1.2,-2.9 2.9,-2.9l5.8,0c1.6,0 2.9,1.3 2.9,2.9l0,2.3l-3.8,0l0,-1.5c0,-0.2 -0.1,-0.2 -0.2,-0.2l-3.5,0c-0.2,0 -0.2,0.1 -0.2,0.2l0,2.3c0,0.2 0.2,0.2 0.2,0.3l5.3,1.5c1.5,0.4 2.4,1.2 2.4,2.7l0,4.1l-0.1,0zm30.5,0c0,1.6 -1.3,2.9 -2.9,2.9l-5.9,0c-1.6,0 -2.9,-1.3 -2.9,-2.9l0,-2.3l3.7,0l0,1.5c0,0.2 0.1,0.2 0.2,0.2l3.7,0c0.2,0 0.2,-0.1 0.2,-0.2l0,-2.5c0,-0.2 -0.2,-0.2 -0.3,-0.3l-5.1,-1.5c-1.6,-0.4 -2.5,-1.2 -2.5,-2.7l0,-3.9c0,-1.6 1.3,-2.9 2.9,-2.9l5.8,0c1.6,0 2.9,1.3 2.9,2.9l0,2.3l-3.7,0l0,-1.5c0,-0.2 -0.1,-0.2 -0.2,-0.2l-3.5,0c-0.2,0 -0.2,0.1 -0.2,0.2l0,2.3c0,0.2 0.2,0.2 0.2,0.3l5.3,1.5c1.5,0.4 2.4,1.2 2.4,2.7l0,4.1l-0.1,0zm53.7,-14.6c1.6,0 2.9,1.3 2.9,2.9l0,5.3c0,1.6 -1.3,2.9 -2.9,2.9l-5.6,0l0,6.4l-3.8,0l0,-17.5l9.4,0l0,0zm-5.5,3.4l0,4.2l4.4,0c0.2,0 0.2,-0.1 0.2,-0.2l0,-3.6c0,-0.2 -0.1,-0.2 -0.2,-0.2l-4.4,-0.2l0,0zm26.2,-3.4l3.8,0l0,14l7,0l0,3.5l-10.8,0l0,-17.5zm42.6,17.5l-3.9,0l-1.1,-3.5l-5.4,0l-1.1,3.5l-3.9,0l5.8,-17.5l3.9,0l5.7,17.5l0,0zm-9.3,-6.9l3.1,0l-1.6,-5.8l-1.5,5.8l0,0zm29.8,-3.3l3,-7.3l4,0l-5,11.6l0,5.9l-3.9,0l0,-5.9l-5.1,-11.7l4,0l3,7.4l0,0z" class="st3"/>
 </g>
</svg>